<?xml version="1.0" encoding="UTF-8" standalone="no"?>
<svg
   width="16"
   height="16"
   fill="currentColor"
   class="bi bi-cup-hot"
   viewBox="0 0 16 16"
   version="1.1"
   id="svg2"
   sodipodi:docname="icon.svg"
   inkscape:version="1.3.2 (091e20e, 2023-11-25, custom)"
   xmlns:inkscape="http://www.inkscape.org/namespaces/inkscape"
   xmlns:sodipodi="http://sodipodi.sourceforge.net/DTD/sodipodi-0.dtd"
   xmlns="http://www.w3.org/2000/svg"
   xmlns:svg="http://www.w3.org/2000/svg">
  <defs
     id="defs2" />
  <sodipodi:namedview
     id="namedview2"
     pagecolor="#ffffff"
     bordercolor="#000000"
     borderopacity="0.25"
     inkscape:showpageshadow="2"
     inkscape:pageopacity="0.0"
     inkscape:pagecheckerboard="0"
     inkscape:deskcolor="#d1d1d1"
     inkscape:zoom="31.3125"
     inkscape:cx="8"
     inkscape:cy="8"
     inkscape:window-width="1366"
     inkscape:window-height="697"
     inkscape:window-x="-8"
     inkscape:window-y="-8"
     inkscape:window-maximized="1"
     inkscape:current-layer="svg2" />
  <path
     fill-rule="evenodd"
     d="M.5 6a.5.5 0 0 0-.488.608l1.652 7.434A2.5 2.5 0 0 0 4.104 16h5.792a2.5 2.5 0 0 0 2.44-1.958l.131-.59a3 3 0 0 0 1.3-5.854l.221-.99A.5.5 0 0 0 13.5 6zM13 12.5a2 2 0 0 1-.316-.025l.867-3.898A2.001 2.001 0 0 1 13 12.5M2.64 13.825 1.123 7h11.754l-1.517 6.825A1.5 1.5 0 0 1 9.896 15H4.104a1.5 1.5 0 0 1-1.464-1.175"
     id="path1"
     style="stroke:#757575;stroke-opacity:0;fill:#ebdbb2;fill-opacity:1" />
  <path
     d="m4.4.8-.003.004-.014.019a4 4 0 0 0-.204.31 2 2 0 0 0-.141.267c-.026.06-.034.092-.037.103v.004a.6.6 0 0 0 .091.248c.075.133.178.272.308.445l.01.012c.118.158.26.347.37.543.112.2.22.455.22.745 0 .188-.065.368-.119.494a3 3 0 0 1-.202.388 5 5 0 0 1-.253.382l-.018.025-.005.008-.002.002A.5.5 0 0 1 3.6 4.2l.003-.004.014-.019a4 4 0 0 0 .204-.31 2 2 0 0 0 .141-.267c.026-.06.034-.092.037-.103a.6.6 0 0 0-.09-.252A4 4 0 0 0 3.6 2.8l-.01-.012a5 5 0 0 1-.37-.543A1.53 1.53 0 0 1 3 1.5c0-.188.065-.368.119-.494.059-.138.134-.274.202-.388a6 6 0 0 1 .253-.382l.025-.035A.5.5 0 0 1 4.4.8m3 0-.003.004-.014.019a4 4 0 0 0-.204.31 2 2 0 0 0-.141.267c-.026.06-.034.092-.037.103v.004a.6.6 0 0 0 .091.248c.075.133.178.272.308.445l.01.012c.118.158.26.347.37.543.112.2.22.455.22.745 0 .188-.065.368-.119.494a3 3 0 0 1-.202.388 5 5 0 0 1-.253.382l-.018.025-.005.008-.002.002A.5.5 0 0 1 6.6 4.2l.003-.004.014-.019a4 4 0 0 0 .204-.31 2 2 0 0 0 .141-.267c.026-.06.034-.092.037-.103a.6.6 0 0 0-.09-.252A4 4 0 0 0 6.6 2.8l-.01-.012a5 5 0 0 1-.37-.543A1.53 1.53 0 0 1 6 1.5c0-.188.065-.368.119-.494.059-.138.134-.274.202-.388a6 6 0 0 1 .253-.382l.025-.035A.5.5 0 0 1 7.4.8m3 0-.003.004-.014.019a4 4 0 0 0-.204.31 2 2 0 0 0-.141.267c-.026.06-.034.092-.037.103v.004a.6.6 0 0 0 .091.248c.075.133.178.272.308.445l.01.012c.118.158.26.347.37.543.112.2.22.455.22.745 0 .188-.065.368-.119.494a3 3 0 0 1-.202.388 5 5 0 0 1-.252.382l-.019.025-.005.008-.002.002A.5.5 0 0 1 9.6 4.2l.003-.004.014-.019a4 4 0 0 0 .204-.31 2 2 0 0 0 .141-.267c.026-.06.034-.092.037-.103a.6.6 0 0 0-.09-.252A4 4 0 0 0 9.6 2.8l-.01-.012a5 5 0 0 1-.37-.543A1.53 1.53 0 0 1 9 1.5c0-.188.065-.368.119-.494.059-.138.134-.274.202-.388a6 6 0 0 1 .253-.382l.025-.035A.5.5 0 0 1 10.4.8"
     id="path2"
     style="fill:#ebdbb2;fill-opacity:1" />
  <path
     style="fill:#ebdbb2;stroke-width:0.0319361;fill-opacity:1;stroke:#ebdbb2;stroke-opacity:1"
     d="M 3.7684631,15.961649 C 2.8925979,15.83653 2.0996141,15.201089 1.7887752,14.375266 1.7090568,14.163474 0.01596806,6.615931 0.01596806,6.4723502 c 0,-0.1227405 0.12547998,-0.3116114 0.25561805,-0.3847531 L 0.39193003,6.0199601 H 6.9988586 c 6.3690784,0 6.6109344,0.00213 6.7182064,0.059133 0.151755,0.080643 0.254991,0.240192 0.254991,0.3940834 0,0.068425 -0.0503,0.3489351 -0.111777,0.6233548 -0.06148,0.2744197 -0.111776,0.5031812 -0.111776,0.5083589 0,0.00518 0.06108,0.025722 0.135729,0.045653 0.376254,0.1004576 0.835418,0.3701464 1.173995,0.6895424 0.984718,0.9289331 1.21843,2.3481144 0.58571,3.5566404 -0.398916,0.761947 -1.117066,1.313427 -1.979955,1.520439 -0.232892,0.05587 -0.858575,0.07696 -1.083126,0.03651 l -0.129722,-0.02337 -0.0834,0.379077 c -0.09549,0.434033 -0.209397,0.74099 -0.368482,0.99301 -0.266222,0.421747 -0.595094,0.714348 -1.045158,0.929885 -0.523777,0.25084 -0.256066,0.234288 -3.8642716,0.238917 -1.7740519,0.0023 -3.2686627,-0.002 -3.3213573,-0.0095 z m 6.3712579,-0.969287 c 0.295241,-0.04708 0.576374,-0.188371 0.800849,-0.402484 0.354181,-0.337833 0.316907,-0.208463 1.178484,-4.090212 0.421946,-1.9010323 0.767174,-3.4710922 0.767174,-3.4890222 0,-0.022058 -1.905573,-0.0326 -5.8928244,-0.0326 H 1.1005795 l 0.017236,0.071856 c 0.00948,0.039521 0.3611208,1.6204138 0.7814238,3.5130952 0.7949161,3.579615 0.8030975,3.61056 1.0305269,3.897712 0.2090435,0.263939 0.6249543,0.497598 0.9664409,0.542948 0.2301914,0.03057 6.0469796,0.02005 6.2435129,-0.01129 z M 13.47832,12.45461 c 0.709792,-0.180427 1.284967,-0.747086 1.465506,-1.44381 0.06423,-0.247885 0.06526,-0.766185 0.002,-1.0160663 C 14.808986,9.4541065 14.410055,8.9576232 13.91233,8.7085039 13.674672,8.5895521 13.52495,8.5440892 13.52495,8.5908763 c 0,0.016103 -0.817979,3.7057807 -0.851362,3.8402617 -0.0176,0.07088 -0.01354,0.07186 0.298276,0.07186 0.177336,0 0.399676,-0.02124 0.506456,-0.04838 z"
     id="path3" />
</svg>
